<?xml version="1.0" encoding="utf-8"?>
<!-- Generator: Adobe Illustrator 16.0.0, SVG Export Plug-In . SVG Version: 6.00 Build 0)  -->
<!DOCTYPE svg PUBLIC "-//W3C//DTD SVG 1.0//EN" "http://www.w3.org/TR/2001/REC-SVG-20010904/DTD/svg10.dtd">
<svg version="1.0" id="Layer_1" xmlns="http://www.w3.org/2000/svg" xmlns:xlink="http://www.w3.org/1999/xlink" x="0px" y="0px"
	 width="100px" height="100px" viewBox="0 0 100 100" enable-background="new 0 0 100 100" xml:space="preserve">
<path d="M50,23.333c-7.363,0-13.333,5.97-13.333,13.333C36.667,44.032,42.637,50,50,50s13.333-5.968,13.333-13.333
	C63.333,29.303,57.363,23.333,50,23.333z M50,43.333c-3.682,0-6.667-2.985-6.667-6.667S46.318,30,50,30s6.667,2.985,6.667,6.667
	S53.682,43.333,50,43.333z"/>
<path d="M50,10c-22.093,0-40,17.909-40,40.001C10,72.09,27.907,90,50,90c22.09,0,40-17.91,40-39.999C90,27.909,72.09,10,50,10z
	 M30,76.621V70c0-3.682,2.985-6.667,6.667-6.667h26.666C67.015,63.333,70,66.318,70,70v6.621c-5.576,4.196-12.487,6.712-20,6.712
	S35.573,80.817,30,76.621z M76.66,69.944c-0.029-7.334-5.983-13.277-13.327-13.277H36.667c-7.344,0-13.301,5.94-13.327,13.281
	c-4.173-5.566-6.673-12.458-6.673-19.947c0-18.411,14.922-33.335,33.333-33.335c18.408,0,33.333,14.924,33.333,33.335
	C83.333,57.49,80.833,64.382,76.66,69.944z"/>
</svg>
